<svg id="Layer_1" data-name="Layer 1" xmlns="http://www.w3.org/2000/svg" xmlns:xlink="http://www.w3.org/1999/xlink" viewBox="0 0 291.8 291.8"><defs><style>.cls-1{fill:url(#linear-gradient);}.cls-2{fill:#ffd8bb;}.cls-3{fill:#f8c197;}.cls-4{fill:#333;}.cls-5{fill:#fff;}</style><linearGradient id="linear-gradient" y1="145.34" x2="290.68" y2="145.34" gradientUnits="userSpaceOnUse"><stop offset="0" stop-color="#50ba84"/><stop offset="1" stop-color="#15abd0"/></linearGradient></defs><g id="Group_940" data-name="Group 940"><path class="cls-1" d="M245.27,0H45.41A45.46,45.46,0,0,0,0,45.44V249.15c0,21.38,17.7,39,40.44,41.27,1.64.16,3.29.26,5,.26H245.24c1.68,0,3.32-.1,4.94-.26,22.77-2.23,40.5-19.83,40.5-41.27V45.44A45.48,45.48,0,0,0,245.27,0Z"/><g id="Group_949" data-name="Group 949"><g id="Group_920" data-name="Group 920"><path class="cls-2" d="M224,77.64V211.23a7.55,7.55,0,0,1-7.56,7.52h-51.1V70.09h51.1A7.57,7.57,0,0,1,224,77.64Z"/><path class="cls-3" d="M165.33,70.09V218.75H74.16A7.64,7.64,0,0,1,70,217.53a7.52,7.52,0,0,1-3.36-6.27V77.58a7.5,7.5,0,0,1,7.5-7.49Z"/><path id="Path_1698" data-name="Path 1698" class="cls-4" d="M124,70.1v79.67l-17.68-17.68-17.2,17.2V70.08Z"/></g><g id="Group_924" data-name="Group 924"><g id="Group_923" data-name="Group 923"><g id="Group_921" data-name="Group 921"><path class="cls-5" d="M241,176.41v13.21a19.33,19.33,0,0,1-17,19.22,14.26,14.26,0,0,1-2.36.16H69a14.18,14.18,0,0,1-2.36-.16,19.33,19.33,0,0,1-17-19.22V176.41a19.34,19.34,0,0,1,17-19.22A14.18,14.18,0,0,1,69,157H221.63a14.26,14.26,0,0,1,2.36.16A19.34,19.34,0,0,1,241,176.41Z"/></g><g id="Group_922" data-name="Group 922"><path id="Path_1699" data-name="Path 1699" class="cls-4" d="M117.91,179.73l1.52,2.69-4.61,1.72,4.61,1.72-1.55,2.76-3.83-3,.7,4.87h-3.1l.65-4.87-3.83,3.09-1.62-2.85,4.57-1.72-4.57-1.65,1.55-2.76,3.93,3-.67-4.91h3.12l-.73,4.91Z"/><path id="Path_1700" data-name="Path 1700" class="cls-4" d="M137.55,179.73l1.52,2.69-4.61,1.72,4.61,1.72-1.55,2.76-3.83-3,.7,4.87H131.3l.64-4.87-3.83,3.09-1.61-2.85,4.57-1.72-4.57-1.65,1.55-2.76,3.93,3-.67-4.91h3.13l-.75,4.91Z"/><path id="Path_1701" data-name="Path 1701" class="cls-4" d="M157.2,179.73l1.51,2.69-4.61,1.72,4.61,1.72-1.54,2.76-3.84-3,.71,4.87h-3.1l.65-4.87-3.83,3.09-1.62-2.85,4.57-1.72-4.57-1.65,1.55-2.76,3.93,3-.67-4.91h3.12l-.73,4.91Z"/><path id="Path_1702" data-name="Path 1702" class="cls-4" d="M176.84,179.73l1.52,2.69-4.61,1.72,4.61,1.72-1.55,2.76-3.83-3,.7,4.87h-3.09l.64-4.87-3.83,3.09-1.61-2.85,4.57-1.72-4.57-1.65,1.55-2.76,3.93,3-.67-4.91h3.12l-.74,4.91Z"/><path id="Path_1703" data-name="Path 1703" class="cls-4" d="M196.49,179.73l1.51,2.69-4.61,1.72,4.61,1.72-1.54,2.76-3.84-3,.71,4.87h-3.1l.64-4.87L187,188.68l-1.62-2.85,4.57-1.72-4.57-1.65L187,179.7l3.93,3-.67-4.91h3.13l-.74,4.91Z"/><path id="Path_1704" data-name="Path 1704" class="cls-4" d="M216.13,179.73l1.51,2.69L213,184.14l4.61,1.72-1.55,2.76-3.83-3,.71,4.87h-3.1l.65-4.87-3.84,3.09-1.61-2.85,4.57-1.72-4.57-1.65,1.55-2.76,3.93,3-.67-4.91H213l-.74,4.91Z"/></g></g><path id="Path_1705" data-name="Path 1705" class="cls-4" d="M86.4,178.25H84.56v-2.87a6.22,6.22,0,0,0-12.44,0v2.87H70.31a1.66,1.66,0,0,0-1.65,1.65v12.53a1.66,1.66,0,0,0,1.65,1.65H86.4A1.66,1.66,0,0,0,88,192.43V179.9A1.65,1.65,0,0,0,86.4,178.25Zm-3.91,0h-8.3v-2.87a4.15,4.15,0,0,1,8.3,0Z"/></g></g></g></svg>