<svg id="Layer_1" data-name="Layer 1" xmlns="http://www.w3.org/2000/svg" xmlns:xlink="http://www.w3.org/1999/xlink" viewBox="0 0 289.65 289.65"><defs><style>.cls-1{fill:url(#linear-gradient);}.cls-2{fill:#e5b06a;}.cls-3{fill:#4c2e18;}.cls-4{fill:#ffc36c;}.cls-5{fill:#606060;isolation:isolate;opacity:0.1;}</style><linearGradient id="linear-gradient" x1="-1.03" y1="145.34" x2="289.65" y2="145.34" gradientUnits="userSpaceOnUse"><stop offset="0" stop-color="#50ba84"/><stop offset="1" stop-color="#15abd0"/></linearGradient></defs><g id="Group_945" data-name="Group 945"><path class="cls-1" d="M244.24,0H44.41A45.46,45.46,0,0,0-1,45.41V249.15c0,21.51,17.89,39.17,40.76,41.3a42.22,42.22,0,0,0,4.65.23H244.24c1.68,0,3.33-.1,4.94-.26,22.74-2.23,40.47-19.83,40.47-41.27V45.41A45.42,45.42,0,0,0,244.24,0Z"/><g id="Group_951" data-name="Group 951"><path class="cls-2" d="M224.34,126.09v18.06H64.28V126.09a50.35,50.35,0,0,1,50.35-50.38H174a50.13,50.13,0,0,1,36.95,16.18l.06,0A50.36,50.36,0,0,1,224.34,126.09Z"/><path class="cls-3" d="M224.38,157v5a4.43,4.43,0,0,1-4.43,4.39H68.67A4.4,4.4,0,0,1,64.28,162v-5a4.4,4.4,0,0,1,4.39-4.42H220A4.44,4.44,0,0,1,224.38,157Z"/><path class="cls-2" d="M224.34,174.92V192.3a21.79,21.79,0,0,1-.74,5.65,22.56,22.56,0,0,1-21.83,17H86.88a22.63,22.63,0,0,1-22.6-22.61V174.92Z"/><path class="cls-4" d="M216,152.61l-6.88,13.82-4.23,8.49-5.26,10.57a51.66,51.66,0,0,0-7.3-10.57,54.84,54.84,0,0,0-9.6-8.49c-18.34-13-40.72-13.82-40.72-13.82Z"/><path class="cls-5" d="M223.6,198a22.56,22.56,0,0,1-21.83,17H86.88a22.63,22.63,0,0,1-22.6-22.61V174.92h48.86A263.83,263.83,0,0,0,223.6,198Z"/><path class="cls-5" d="M224.34,126.09v18c-14.66-11.43-28.42-21.25-40.85-29.55C142,86.85,114.63,75.71,114.63,75.71H174a50.13,50.13,0,0,1,36.95,16.18l.06,0A50.36,50.36,0,0,1,224.34,126.09Z"/></g></g></svg>