<svg id="Layer_1" data-name="Layer 1" xmlns="http://www.w3.org/2000/svg" xmlns:xlink="http://www.w3.org/1999/xlink" viewBox="0 0 290.89 290.89"><defs><style>.cls-1{fill:url(#linear-gradient);}.cls-2{fill:#fff;}.cls-3{fill:#dcdcdc;}.cls-4{fill:#333;}.cls-5{fill:url(#linear-gradient-2);}</style><linearGradient id="linear-gradient" x1="0.21" y1="145.34" x2="290.89" y2="145.34" gradientUnits="userSpaceOnUse"><stop offset="0" stop-color="#50ba84"/><stop offset="1" stop-color="#15abd0"/></linearGradient><linearGradient id="linear-gradient-2" x1="202.44" y1="154.67" x2="202.44" y2="215.75" gradientUnits="userSpaceOnUse"><stop offset="0" stop-opacity="0.3"/><stop offset="1" stop-opacity="0.1"/></linearGradient></defs><g id="Group_941" data-name="Group 941"><path class="cls-1" d="M245.48,0H45.62A45.43,45.43,0,0,0,.21,45.41V249.15c0,21.51,17.89,39.17,40.76,41.3a42.09,42.09,0,0,0,4.65.23H245.48c1.67,0,3.32-.1,4.94-.26,22.73-2.23,40.47-19.83,40.47-41.27V45.41A45.43,45.43,0,0,0,245.48,0Z"/><g id="Group_950" data-name="Group 950"><path class="cls-2" d="M200.74,53.52V153a32.26,32.26,0,0,0-22.06,10.4V47.15h15.73A6.4,6.4,0,0,1,200.74,53.52Z"/><path class="cls-2" d="M200.74,217.46v1.1a6.29,6.29,0,0,1-6.3,6.3H178.68v-17.8A32.26,32.26,0,0,0,200.74,217.46Z"/><path class="cls-3" d="M178.68,47.19V163.36a32.28,32.28,0,0,0,0,43.7v17.83H101a6,6,0,0,1-4.87-2.36,6.28,6.28,0,0,1-1.46-3.94V53.45A6.28,6.28,0,0,1,101,47.19Z"/><rect id="Rectangle_225" data-name="Rectangle 225" class="cls-4" x="139.84" y="99.25" width="30.15" height="53.45"/><path class="cls-4" d="M233,185.2a30.54,30.54,0,1,1-30.53-30.53A30.53,30.53,0,0,1,233,185.2Z"/><path id="Path_1710" data-name="Path 1710" class="cls-2" d="M216.15,176.77H213v-4.88a10.58,10.58,0,1,0-21.16,0v4.88h-3.13a2.81,2.81,0,0,0-2.78,2.81v21.31a2.81,2.81,0,0,0,2.78,2.81h27.42a2.79,2.79,0,0,0,2.78-2.81V179.58A2.79,2.79,0,0,0,216.15,176.77Zm-6.62,0H195.35v-4.88a7.09,7.09,0,1,1,14.18,0Z"/></g><path class="cls-5" d="M233,185.2a30.54,30.54,0,1,1-30.53-30.53A30.53,30.53,0,0,1,233,185.2Z"/></g></svg>