<svg id="Layer_1" data-name="Layer 1" xmlns="http://www.w3.org/2000/svg" xmlns:xlink="http://www.w3.org/1999/xlink" viewBox="0 0 292.42 292.42"><defs><style>.cls-1{fill:url(#linear-gradient);}.cls-2{fill:#7b7b7b;}.cls-3{fill:#333;}.cls-4{fill:#ffd8bb;}.cls-5{fill:#f8c197;}.cls-6{fill:#a8a8a8;}.cls-7{fill:#ff5a5a;}.cls-8,.cls-9{fill:#fff;}.cls-8{isolation:isolate;opacity:0.2;}</style><linearGradient id="linear-gradient" x1="1.74" y1="147.1" x2="292.42" y2="147.1" gradientUnits="userSpaceOnUse"><stop offset="0" stop-color="#50ba84"/><stop offset="1" stop-color="#15abd0"/></linearGradient></defs><g id="Group_933" data-name="Group 933"><path class="cls-1" d="M247,1.77H47.19A45.4,45.4,0,0,0,1.77,47.19v83a0,0,0,0,1,0,0V250.89c0,21.35,17.57,38.88,40.21,41.24a45.13,45.13,0,0,0,5.24.29H247a44.83,44.83,0,0,0,4.65-.22c22.87-2.1,40.76-19.77,40.76-41.31V47.19A45.39,45.39,0,0,0,247,1.77Z"/><g id="Group_952" data-name="Group 952"><path class="cls-2" d="M184.61,171.92v31.39H1.74V169.37h56.2A21.73,21.73,0,0,1,64.72,153a25.85,25.85,0,0,1,2-1.74s9.72-9.75,45.31-9.75h41.34A30.8,30.8,0,0,1,177.89,153a29.4,29.4,0,0,1,3.52,5.3,11.53,11.53,0,0,1,.68,1.52,31.11,31.11,0,0,1,2.46,10.07v.2C184.58,170.69,184.61,171.27,184.61,171.92Z"/><path class="cls-3" d="M166,203.31a36.58,36.58,0,1,1-73.16,0h22.35a14.25,14.25,0,1,0,28.49,0Z"/><path id="Path_1728" data-name="Path 1728" class="cls-3" d="M28.42,143.34l2.15,3.72a12.36,12.36,0,0,0,10.82,6.18L64.73,153c.65-.6,1.29-1.17,2-1.73,0,0,9.71-9.74,45.31-9.74h1.69V127.43a11.25,11.25,0,0,0-11.24-11.25H68.88a14.9,14.9,0,0,0-10.57,4.36l-8.92,8.92H36.45a9.27,9.27,0,0,0-8,13.88Z"/><g id="Group_925" data-name="Group 925"><g id="Group_920" data-name="Group 920"><path id="Path_1696" data-name="Path 1696" class="cls-4" d="M111.58,58.76v79.46a4.48,4.48,0,0,0,4.48,4.49h30.38V54.28H116.07A4.49,4.49,0,0,0,111.58,58.76Z"/><path class="cls-5" d="M205.15,58.72v79.51a4.47,4.47,0,0,1-4.49,4.46H146.47V54.26h54.19A4.47,4.47,0,0,1,205.15,58.72Z"/><path id="Path_1698" data-name="Path 1698" class="cls-3" d="M171,54.28v47.38l10.51-10.52,10.24,10.23V54.27Z"/></g></g><path class="cls-6" d="M185.9,149.7v20.15H175.79V158.74a9.06,9.06,0,0,1,9.05-9Z"/><path class="cls-7" d="M196,152.67v14.21a3,3,0,0,1-3,3h-2.55V149.7H193A3,3,0,0,1,196,152.67Z"/><rect class="cls-3" x="185.9" y="149.7" width="4.55" height="20.15"/><path class="cls-8" d="M184.61,171.92v31.39H52.68a56.84,56.84,0,0,1,54.22-43.5c.36,0,.75,0,1.1,0h67.83v10.07h8.72v.2C184.58,170.69,184.61,171.27,184.61,171.92Z"/><path class="cls-9" d="M189.42,173.79v1.59a1.62,1.62,0,0,1-1.61,1.61H84.07v-1.58a3.22,3.22,0,0,1,3.23-3.23H187.81A1.64,1.64,0,0,1,189.42,173.79Z"/><path class="cls-9" d="M189.42,181.16v1.58a1.62,1.62,0,0,1-1.61,1.61H78.13v-1.58a3.23,3.23,0,0,1,3.23-3.23H187.81A1.64,1.64,0,0,1,189.42,181.16Z"/></g></g></svg>