<svg id="Layer_1" data-name="Layer 1" xmlns="http://www.w3.org/2000/svg" xmlns:xlink="http://www.w3.org/1999/xlink" viewBox="0 0 290.74 290.74"><defs><style>.cls-1{fill:url(#linear-gradient);}.cls-2{fill:#333;}.cls-3{fill:#fff;}</style><linearGradient id="linear-gradient" y1="145.34" x2="290.68" y2="145.34" gradientUnits="userSpaceOnUse"><stop offset="0" stop-color="#50ba84"/><stop offset="1" stop-color="#15abd0"/></linearGradient></defs><g id="Group_940" data-name="Group 940"><g id="Group_919" data-name="Group 919"><g id="Group_916" data-name="Group 916"><g id="Group_915" data-name="Group 915"><path class="cls-1" d="M290.68,45.44V245.27a45.44,45.44,0,0,1-40.51,45.15c-1.61.16-3.26.26-4.94.26H45.41c-1.68,0-3.33-.1-5-.26A45.41,45.41,0,0,1,0,245.3V45.44A45.45,45.45,0,0,1,45.41,0H245.27A45.49,45.49,0,0,1,290.68,45.44Z"/></g></g></g></g><path class="cls-2" d="M201.25,64.46l71.21,37.69a6.49,6.49,0,0,1,2.7,8.78L216.11,222.51a6.48,6.48,0,0,1-8.77,2.7l-71.22-37.69a6.49,6.49,0,0,1-2.7-8.78L192.47,67.17a2.5,2.5,0,0,1,.23-.39A6.49,6.49,0,0,1,201.25,64.46Z"/><rect class="cls-3" x="114.99" y="125.88" width="139.23" height="17.08" transform="translate(-20.55 234.7) rotate(-62.11)"/><path class="cls-3" d="M242.63,113.47a6.65,6.65,0,0,0-7.06-3.73,1.1,1.1,0,0,1-1.2-.76v0a1.09,1.09,0,0,1,.87-1.4,8.82,8.82,0,0,1,9.37,5A1.1,1.1,0,0,1,244,114h0A1.08,1.08,0,0,1,242.63,113.47Z"/><path class="cls-3" d="M246.58,111.18a10.12,10.12,0,0,0-11.33-6,1.11,1.11,0,0,1-1.28-.75l-.13-.43a1.1,1.1,0,0,1,.83-1.39,12.76,12.76,0,0,1,14.36,7.6,1.1,1.1,0,0,1-.69,1.47l-.43.13A1.09,1.09,0,0,1,246.58,111.18Z"/><path class="cls-3" d="M252.18,110.3a16.53,16.53,0,0,0-19.36-10.25,1.07,1.07,0,0,1-1.28-.74l-.13-.43a1.08,1.08,0,0,1,.78-1.38,19.15,19.15,0,0,1,22.45,11.88,1.09,1.09,0,0,1-.7,1.43l-.42.13A1.09,1.09,0,0,1,252.18,110.3Z"/><rect class="cls-3" x="40.03" y="75.73" width="85.28" height="146.54" rx="2.92" transform="translate(-53.64 46.75) rotate(-24.1)"/><path class="cls-2" d="M75.83,154.29l1-.43-3.17-7.08a4.77,4.77,0,0,0,.42,3.53Z"/><path class="cls-2" d="M75.64,144.63l3.63,8.12.78-.35-3.63-8.11-.46.18Z"/><path class="cls-2" d="M82.52,151.3l.85-.38-1.78-4a4.94,4.94,0,0,0-2.18-2.59Z"/><path class="cls-2" d="M71.48,124a27.39,27.39,0,1,0,36.2,13.81A27.38,27.38,0,0,0,71.48,124Zm31.78,26.81L85.8,158.62,87,161.3l-2.47,1.1-1.2-2.68-.77.35,1.19,2.68-2.47,1.11-1.2-2.68-6.87,3.07-5.3-11.86a14.63,14.63,0,0,1-1.48-6.63,9.34,9.34,0,0,1,1.76-5.26,10,10,0,0,1,1.8-1.88l-1.3-2.9,2.48-1.1,1.14,2.56.33-.16.45-.19-1.15-2.56,2.48-1.11,1.33,3a10.76,10.76,0,0,1,2.2,0,9.64,9.64,0,0,1,5.14,2.12,14.3,14.3,0,0,1,4.08,5.57l2,4.54L100,143.48Z"/><rect class="cls-2" x="99.29" y="58.32" width="88.3" height="151.73" rx="3.02"/><rect class="cls-3" x="70.88" y="93.35" width="145.11" height="81.67" rx="1.89" transform="translate(277.63 -9.25) rotate(90)"/><rect class="cls-2" x="132.66" y="65.68" width="21.55" height="5.33" rx="2.66"/><path class="cls-2" d="M134.58,103.74v2.65h-12a3,3,0,0,0-3,3v12.22H117V109.36a5.62,5.62,0,0,1,5.62-5.62Z"/><path class="cls-2" d="M134.58,154v2.65h-12A5.62,5.62,0,0,1,117,151V139.43h2.64V151a3,3,0,0,0,3,3Z"/><path class="cls-2" d="M169.88,139.43V151a5.63,5.63,0,0,1-5.63,5.63H152.43V154h11.82a3,3,0,0,0,3-3V139.43Z"/><path class="cls-2" d="M169.88,109.36v12.22h-2.65V109.36a3,3,0,0,0-3-3H152.43v-2.65h11.82A5.63,5.63,0,0,1,169.88,109.36Z"/></svg>