<svg xmlns="http://www.w3.org/2000/svg" viewBox="0 0 10 10"><defs><style>.cls-1{fill:#0052b4;}.cls-2{fill:#d80027;}.cls-3{fill:#f0f0f0;}.cls-4{fill:#ffda44;}</style></defs><g id="Layer_2" data-name="Layer 2"><g id="Layer_1-2" data-name="Layer 1"><path class="cls-1" d="M10,5H5.87L1.93,1.06A4.9,4.9,0,0,1,5,0,5,5,0,0,1,10,5Z"/><path class="cls-2" d="M10,5a5,5,0,0,1-5,5A4.9,4.9,0,0,1,1.93,8.94L5.87,5Z"/><path class="cls-3" d="M5.87,5,1.93,8.94a5,5,0,0,1,0-7.88Z"/><polygon class="cls-4" points="2.46 4.44 2.88 3.97 2.85 4.61 3.49 4.57 3.02 5 3.49 5.43 2.85 5.39 2.88 6.03 2.46 5.56 2.03 6.03 2.06 5.39 1.42 5.43 1.9 5 1.42 4.57 2.06 4.61 2.03 3.97 2.46 4.44"/><polygon class="cls-4" points="2.08 2.03 2.22 2.3 1.91 2.25 1.7 2.47 1.65 2.17 1.37 2.03 1.65 1.89 1.7 1.58 1.91 1.8 2.22 1.75 2.08 2.03"/><polygon class="cls-4" points="2.08 7.97 2.22 8.25 1.91 8.2 1.7 8.42 1.65 8.11 1.37 7.97 1.65 7.83 1.7 7.53 1.91 7.75 2.22 7.7 2.08 7.97"/><polygon class="cls-4" points="4.99 5 5.14 5.28 4.83 5.22 4.61 5.45 4.57 5.14 4.29 5 4.57 4.86 4.61 4.55 4.83 4.78 5.14 4.72 4.99 5"/></g></g></svg>