<svg xmlns="http://www.w3.org/2000/svg" xmlns:xlink="http://www.w3.org/1999/xlink" viewBox="0 0 19.93 19.92"><defs><style>.cls-1{fill:url(#linear-gradient);}.cls-2{fill:url(#linear-gradient-2);}.cls-3{fill:url(#linear-gradient-3);}.cls-4{fill:url(#linear-gradient-4);}.cls-5{fill:url(#linear-gradient-5);}.cls-6{fill:url(#linear-gradient-6);}.cls-7{fill:url(#linear-gradient-7);}.cls-8{fill:url(#linear-gradient-8);}.cls-9{fill:url(#linear-gradient-9);}.cls-10{fill:url(#linear-gradient-10);}.cls-11{fill:url(#linear-gradient-11);}.cls-12{fill:url(#linear-gradient-12);}.cls-13{fill:url(#linear-gradient-13);}.cls-14{fill:url(#linear-gradient-14);}</style><linearGradient id="linear-gradient" x1="-7.29" y1="8.54" x2="9.18" y2="25.01" gradientUnits="userSpaceOnUse"><stop offset="0" stop-color="#50ba84"/><stop offset="1" stop-color="#15abd0"/></linearGradient><linearGradient id="linear-gradient-2" x1="0.63" y1="0.62" x2="17.1" y2="17.09" xlink:href="#linear-gradient"/><linearGradient id="linear-gradient-3" x1="0.63" y1="0.62" x2="17.1" y2="17.09" xlink:href="#linear-gradient"/><linearGradient id="linear-gradient-4" x1="6.33" y1="-5.08" x2="22.8" y2="11.38" xlink:href="#linear-gradient"/><linearGradient id="linear-gradient-5" x1="-5.01" y1="6.26" x2="11.46" y2="22.73" xlink:href="#linear-gradient"/><linearGradient id="linear-gradient-6" x1="4.18" y1="-2.93" x2="20.65" y2="13.54" xlink:href="#linear-gradient"/><linearGradient id="linear-gradient-7" x1="-0.25" y1="1.5" x2="16.21" y2="17.97" xlink:href="#linear-gradient"/><linearGradient id="linear-gradient-8" x1="3.95" y1="-2.7" x2="20.42" y2="13.77" xlink:href="#linear-gradient"/><linearGradient id="linear-gradient-9" x1="0.3" y1="0.95" x2="16.77" y2="17.42" xlink:href="#linear-gradient"/><linearGradient id="linear-gradient-10" x1="-1.83" y1="3.08" x2="14.63" y2="19.55" xlink:href="#linear-gradient"/><linearGradient id="linear-gradient-11" x1="-0.75" y1="2" x2="15.72" y2="18.46" xlink:href="#linear-gradient"/><linearGradient id="linear-gradient-12" x1="0.8" y1="0.45" x2="17.27" y2="16.92" xlink:href="#linear-gradient"/><linearGradient id="linear-gradient-13" x1="8.55" y1="-7.3" x2="25.01" y2="9.17" xlink:href="#linear-gradient"/><linearGradient id="linear-gradient-14" x1="0.62" y1="0.62" x2="17.09" y2="17.09" xlink:href="#linear-gradient"/></defs><g id="Layer_2" data-name="Layer 2"><g id="Layer_1-2" data-name="Layer 1"><path class="cls-1" d="M6.68,19.92H.5a.5.5,0,0,1-.5-.5V13.24a.5.5,0,0,1,.5-.5.5.5,0,0,1,.5.5v5.68H6.68a.5.5,0,0,1,0,1Z"/><path class="cls-2" d="M19.43,19.92H13.25a.5.5,0,0,1,0-1h5.68V13.24a.5.5,0,0,1,.5-.5.5.5,0,0,1,.5.5v6.18A.5.5,0,0,1,19.43,19.92Z"/><path class="cls-3" d="M6,6.51H2.5A.5.5,0,0,1,2,6V2.49A.5.5,0,0,1,2.5,2H6a.5.5,0,0,1,.5.5V6A.5.5,0,0,1,6,6.51Zm-3-1H5.53V3H3Z"/><path class="cls-4" d="M17.43,6.51H13.9a.5.5,0,0,1-.5-.5V2.49a.5.5,0,0,1,.5-.5h3.53a.5.5,0,0,1,.5.5V6A.5.5,0,0,1,17.43,6.51Zm-3-1h2.53V3H14.4Z"/><path class="cls-5" d="M6,17.8H2.5a.5.5,0,0,1-.5-.5V13.77a.5.5,0,0,1,.5-.5H6a.51.51,0,0,1,.5.5V17.3A.5.5,0,0,1,6,17.8Zm-3-1H5.53V14.27H3Z"/><path class="cls-6" d="M11.92,7.63a.5.5,0,0,1-.5-.5V3H8.11a.5.5,0,0,1,0-1h3.81a.5.5,0,0,1,.5.5V7.13A.5.5,0,0,1,11.92,7.63Z"/><path class="cls-7" d="M8.11,9.82H2.5a.5.5,0,0,1-.5-.5.5.5,0,0,1,.5-.5H7.61v-4a.51.51,0,0,1,.5-.5.5.5,0,0,1,.5.5V9.32A.5.5,0,0,1,8.11,9.82Z"/><path class="cls-8" d="M17.43,9.51H13.89a.5.5,0,0,1,0-1h3.54a.5.5,0,0,1,0,1Z"/><path class="cls-9" d="M11.92,12H8.11a.5.5,0,1,1,0-1h3.31V9.82a.5.5,0,0,1,.5-.5.5.5,0,0,1,.5.5v1.69A.5.5,0,0,1,11.92,12Z"/><path class="cls-10" d="M10,15.54H8.11a.5.5,0,1,1,0-1H9.52V12.92a.5.5,0,0,1,.5-.5.51.51,0,0,1,.5.5V15A.5.5,0,0,1,10,15.54Z"/><path class="cls-11" d="M17.43,17.92H11.92a.5.5,0,0,1,0-1h5.51a.5.5,0,0,1,0,1Z"/><path class="cls-12" d="M17.43,16h-3.1a.5.5,0,0,1-.5-.5v-3.1a.5.5,0,0,1,.5-.5.5.5,0,0,1,.5.5V15h2.6a.5.5,0,0,1,.5.5A.5.5,0,0,1,17.43,16Z"/><path class="cls-13" d="M19.43,7.18a.5.5,0,0,1-.5-.5V1H13.25a.5.5,0,0,1,0-1h6.18a.5.5,0,0,1,.5.5V6.68A.5.5,0,0,1,19.43,7.18Z"/><path class="cls-14" d="M.5,7.18a.5.5,0,0,1-.5-.5V.5A.5.5,0,0,1,.5,0H6.68a.5.5,0,0,1,.5.5.5.5,0,0,1-.5.5H1V6.68A.5.5,0,0,1,.5,7.18Z"/></g></g></svg>