<?xml version="1.0" encoding="utf-8"?>
<!-- Generator: Adobe Illustrator 25.4.1, SVG Export Plug-In . SVG Version: 6.00 Build 0)  -->
<svg version="1.1" id="Layer_1" xmlns="http://www.w3.org/2000/svg" xmlns:xlink="http://www.w3.org/1999/xlink" x="0px" y="0px"
	 viewBox="0 0 80.5 36.6" style="enable-background:new 0 0 80.5 36.6;" xml:space="preserve">
<style type="text/css">
	.st0{fill:#FFFFFF;}
</style>
<path id="Path_43" class="st0" d="M3.4,8.2L0,11.6v10L3.4,25h11.8l3.4-3.4v-10l-3.4-3.4L3.4,8.2z M15.1,20.4L14,21.5H4.6l-1.2-1.2
	V13l1.4-1.4h9.3l1.1,1.1L15.1,20.4z"/>
<rect id="Rectangle_2" x="4.9" y="25.4" class="st0" width="8.7" height="3"/>
<path id="Path_44" class="st0" d="M35.6,20.2l-1.3,1.4h-8.2l-1.4-1.4V8.5h-3.3v13.1l3.4,3.4h11.1l3.3-3.4V8.5h-3.5L35.6,20.2z"/>
<path id="Path_45" class="st0" d="M58.1,16.4c0.7-1,1-2.1,1-3.2c-0.3-2.7-2.5-4.7-5.2-4.7H42.4v16.3h14.3c0,0,3.8-2.4,3.8-4.6
	S58.1,16.4,58.1,16.4z M45.8,11.6l9.1-0.1c0.8,1.1,0.8,2.5,0,3.6h-9.1C45.8,15.1,45.8,11.6,45.8,11.6z M55.9,21.6H45.8V18h10.1
	C56.6,19.1,56.6,20.5,55.9,21.6L55.9,21.6z"/>
<path id="Path_46" class="st0" d="M67.9,11.6h12.6V8.5h-14L63,11.6v10l3.4,3.4h14v-3.4h-12l-1.9-1.9V18h12.4v-2.8H66.5V13L67.9,11.6
	z"/>
</svg>
