<svg xmlns="http://www.w3.org/2000/svg" xmlns:xlink="http://www.w3.org/1999/xlink" viewBox="0 0 247.09 79.82"><defs><style>.cls-1{fill:url(#linear-gradient);}.cls-2{fill:url(#linear-gradient-2);}.cls-3{fill:url(#linear-gradient-3);}.cls-4{fill:url(#linear-gradient-4);}.cls-5{fill:url(#linear-gradient-5);}.cls-6{fill:#fff;}.cls-7{fill:url(#linear-gradient-6);}.cls-8{fill:url(#linear-gradient-9);}.cls-9{fill:url(#linear-gradient-10);}.cls-10{fill:url(#linear-gradient-11);}.cls-11{fill:url(#linear-gradient-12);}.cls-12{fill:url(#linear-gradient-13);}</style><linearGradient id="linear-gradient" x1="62.02" y1="62.05" x2="7.33" y2="19.15" gradientUnits="userSpaceOnUse"><stop offset="0" stop-color="#71c7cd"/><stop offset="1" stop-color="#73c9b9"/></linearGradient><linearGradient id="linear-gradient-2" x1="37.89" y1="37.81" x2="41.89" y2="41.01" gradientUnits="userSpaceOnUse"><stop offset="0" stop-color="#50b882"/><stop offset="1" stop-color="#14aacf"/></linearGradient><linearGradient id="linear-gradient-3" x1="11.03" y1="20.58" x2="54.93" y2="55.7" xlink:href="#linear-gradient-2"/><linearGradient id="linear-gradient-4" x1="-1.04" y1="35.67" x2="42.86" y2="70.79" xlink:href="#linear-gradient-2"/><linearGradient id="linear-gradient-5" x1="22.21" y1="35.51" x2="39.05" y2="48.98" xlink:href="#linear-gradient-2"/><linearGradient id="linear-gradient-6" x1="25.61" y1="13.97" x2="58.02" y2="56.85" xlink:href="#linear-gradient-2"/><linearGradient id="linear-gradient-9" x1="75.55" y1="37.03" x2="242" y2="37.03" gradientUnits="userSpaceOnUse"><stop offset="0" stop-color="#51b984"/><stop offset="1" stop-color="#17abd0"/></linearGradient><linearGradient id="linear-gradient-10" x1="75.55" y1="59.42" x2="242" y2="59.42" xlink:href="#linear-gradient-9"/><linearGradient id="linear-gradient-11" x1="75.55" y1="37.34" x2="242" y2="37.34" xlink:href="#linear-gradient-9"/><linearGradient id="linear-gradient-12" x1="75.55" y1="37.21" x2="242" y2="37.21" xlink:href="#linear-gradient-9"/><linearGradient id="linear-gradient-13" x1="75.55" y1="37.33" x2="242" y2="37.33" xlink:href="#linear-gradient-9"/></defs><g id="Layer_2" data-name="Layer 2"><g id="Layer_1-2" data-name="Layer 1"><path class="cls-1" d="M65.78,22.44,34.6.4h0l-.05,0-.07,0L34.35.25h0a2.36,2.36,0,0,0-.28-.12h0l-.11,0-.07,0-.08,0h-.87l-.07,0-.07,0-.14,0h0a2.36,2.36,0,0,0-.28.12h0l-.12.06-.07,0,0,0h0L.91,22.44A2.15,2.15,0,0,0,0,24.2V54.92a2.14,2.14,0,0,0,.89,1.74L32.07,79.41l0,0h0l.11.07h0l.23.12h0l.21.08h0l.11,0h0l.11,0h0l.1,0h.51l.11,0h0l.1,0h0l.11,0h0l.22-.08h0a1.67,1.67,0,0,0,.23-.12h0a.41.41,0,0,0,.11-.07h0s0,0,0,0L65.81,56.66a2.16,2.16,0,0,0,.88-1.74V24.2A2.15,2.15,0,0,0,65.78,22.44Zm-34.59,51L4.32,53.82V28.4L31.19,47.59Zm2.16-29.59-2.16-1.54h0l-9.7-6.93L9.61,26.87,5.89,24.21,31.19,6.33l.91-.64h0l0,0a.18.18,0,0,0,.07-.05l.12-.06h0a2.36,2.36,0,0,1,.28-.12h0l.14,0,.07,0,.07,0h.87l.08,0,.07,0,.11,0h0a2.36,2.36,0,0,1,.28.12h0l.12.06.07.05.05,0h0l.91.64L60.8,24.21l-3.72,2.66L44.41,35.92l-.49.35-8.41,6h0Zm29,10L35.51,73.41V47.59L62.37,28.4Z"/><polygon class="cls-2" points="43.92 36.27 35.51 42.28 35.51 42.28 43.92 36.27"/><polygon class="cls-3" points="62.37 28.4 62.37 53.82 35.51 73.41 35.51 47.59 62.37 28.4"/><polygon class="cls-4" points="31.19 47.59 31.19 73.41 4.32 53.82 4.32 28.4 31.19 47.59"/><polygon class="cls-5" points="31.19 42.28 31.19 42.28 21.49 35.35 31.19 42.28"/><path class="cls-6" d="M65.78,22.44,34.6.4h0l-.05,0-.07,0L34.35.25h0a2.36,2.36,0,0,0-.28-.12h0l-.11,0-.07,0-.08,0h-.87l-.07,0-.07,0-.14,0h0a2.36,2.36,0,0,0-.28.12h0l-.12.06-.07,0,0,0h0L.91,22.44A2.15,2.15,0,0,0,0,24.2V54.92a2.14,2.14,0,0,0,.89,1.74L32.07,79.41l0,0h0l.11.07h0l.23.12h0l.21.08h0l.11,0h0l.11,0h0l.1,0h.51l.11,0h0l.1,0h0l.11,0h0l.22-.08h0a1.67,1.67,0,0,0,.23-.12h0a.41.41,0,0,0,.11-.07h0s0,0,0,0L65.81,56.66a2.16,2.16,0,0,0,.88-1.74V24.2A2.15,2.15,0,0,0,65.78,22.44Zm-34.59,51L4.32,53.82V28.4L31.19,47.59Zm2.16-29.59-2.16-1.54h0l-9.7-6.93L9.61,26.87,5.89,24.21,31.19,6.33l.91-.64h0l0,0a.18.18,0,0,0,.07-.05l.12-.06h0a2.36,2.36,0,0,1,.28-.12h0l.14,0,.07,0,.07,0h.87l.08,0,.07,0,.11,0h0a2.36,2.36,0,0,1,.28.12h0l.12.06.07.05.05,0h0l.91.64L60.8,24.21l-3.72,2.66L44.41,35.92l-.49.35-8.41,6h0Zm29,10L35.51,73.41V47.59L62.37,28.4Z"/><path class="cls-7" d="M60.8,24.21l-3.72,2.66L44.41,35.92l-.49.35-8.41,6-2.16,1.54-2.16-1.54-9.7-6.93L9.61,26.87,5.89,24.21,31.19,6.33l.91-.64h0l0,0a.18.18,0,0,0,.07-.05l.12-.06h0a2.36,2.36,0,0,1,.28-.12h0l.14,0,.07,0,.07,0h.87l.08,0,.07,0,.11,0h0a2.36,2.36,0,0,1,.28.12h0l.12.06.07.05.05,0h0l.91.64Z"/><polygon class="cls-2" points="43.92 36.27 35.51 42.28 35.51 42.28 43.92 36.27"/><polygon class="cls-5" points="31.19 42.28 31.19 42.28 21.49 35.35 31.19 42.28"/><g id="Group_1001" data-name="Group 1001"><path id="Path_1831" data-name="Path 1831" class="cls-8" d="M81.1,19,73.85,26.3V47.78L81.09,55h25.33l7.24-7.25V26.28L106.41,19Zm25.34,26.34-2.4,2.4H83.69L81,45.11V29.3l3-3,20,0,2.39,2.38Z"/><rect id="Rectangle_261" data-name="Rectangle 261" class="cls-9" x="84.45" y="56.17" width="18.62" height="6.49"/><path id="Path_1832" data-name="Path 1832" class="cls-10" d="M150.63,44.9l-2.91,2.92H130l-3-3V19.64h-7.23V47.78L127.05,55H150.9l7.2-7.21V19.64h-7.47Z"/><path id="Path_1833" data-name="Path 1833" class="cls-11" d="M199.08,36.66a12.33,12.33,0,0,0,2.15-7c0-4.15-4.31-10.06-11.26-10.06h-24.8V54.77h30.69S204,49.63,204,44.9,199.08,36.66,199.08,36.66ZM172.4,26.49,192,26.3a6.67,6.67,0,0,1,0,7.8H172.4ZM194.17,48H172.4V40.36l21.77-.2a6.68,6.68,0,0,1,0,7.81Z"/><path id="Path_1834" data-name="Path 1834" class="cls-12" d="M220,26.3h27.12V19.64h-30l-7.45,6.66V47.78L216.89,55h30.2V47.72H221l-4-4V40.16h26.67V34.1H217V29.27Z"/></g></g></g></svg>