<svg xmlns="http://www.w3.org/2000/svg" xmlns:xlink="http://www.w3.org/1999/xlink" width="114" height="114" viewBox="0 0 114 114">
  <defs>
    <linearGradient id="linear-gradient" x1="0.5" y1="1" x2="0.5" gradientUnits="objectBoundingBox">
      <stop offset="0" stop-color="#50ba84"/>
      <stop offset="1" stop-color="#15abd0"/>
    </linearGradient>
    <linearGradient id="linear-gradient-2" x1="-29.419" y1="-53.731" x2="-29.419" y2="-53.741" xlink:href="#linear-gradient"/>
    <linearGradient id="linear-gradient-3" x1="0.5" y1="1.875" x2="0.5" y2="-0.231" gradientUnits="objectBoundingBox">
      <stop offset="0" stop-color="#a0a0a0"/>
      <stop offset="0.22" stop-color="#a0a0a0"/>
      <stop offset="0.351" stop-color="#ababab"/>
      <stop offset="0.588" stop-color="#cbcbcb"/>
      <stop offset="0.902" stop-color="#fff"/>
      <stop offset="1" stop-color="#fff"/>
    </linearGradient>
    <linearGradient id="linear-gradient-4" x1="0.5" x2="0.5" y2="1" gradientUnits="objectBoundingBox">
      <stop offset="0" stop-color="#4fd0b6"/>
      <stop offset="0.868" stop-color="#28a083"/>
      <stop offset="1" stop-color="#28a083"/>
    </linearGradient>
    <linearGradient id="linear-gradient-6" x1="2.553" y1="0.5" x2="-0.405" y2="0.602" xlink:href="#linear-gradient-3"/>
    <linearGradient id="linear-gradient-9" x1="-3.18" y1="0.5" x2="1.941" y2="0.5" gradientUnits="objectBoundingBox">
      <stop offset="0" stop-color="#a0a0a0"/>
      <stop offset="0.084" stop-color="#a0a0a0"/>
      <stop offset="0.22" stop-color="#a0a0a0"/>
      <stop offset="0.351" stop-color="#ababab"/>
      <stop offset="0.588" stop-color="#cbcbcb"/>
      <stop offset="0.902" stop-color="#fff"/>
      <stop offset="1" stop-color="#fff"/>
    </linearGradient>
    <linearGradient id="linear-gradient-10" x1="0.511" y1="1.616" x2="0.5" y2="0" xlink:href="#linear-gradient-3"/>
    <linearGradient id="linear-gradient-11" x1="-241.908" y1="-2902.594" x2="-241.908" y2="-2903" xlink:href="#linear-gradient-4"/>
    <linearGradient id="linear-gradient-12" x1="0.5" x2="0.5" y2="1" gradientUnits="objectBoundingBox">
      <stop offset="0" stop-color="#4fd0b6"/>
      <stop offset="1" stop-color="#28a083"/>
    </linearGradient>
    <linearGradient id="linear-gradient-14" x1="-183.982" y1="-406.858" x2="-183.983" y2="-406.932" xlink:href="#linear-gradient-4"/>
    <linearGradient id="linear-gradient-15" x1="0" y1="0.5" x2="1" y2="0.5" xlink:href="#linear-gradient-4"/>
    <linearGradient id="linear-gradient-16" x1="0.501" y1="1.006" x2="0.494" y2="-0.025" gradientUnits="objectBoundingBox">
      <stop offset="0" stop-color="#a0a0a0"/>
      <stop offset="0.014" stop-color="#a6a6a6"/>
      <stop offset="0.084" stop-color="#c1c1c1"/>
      <stop offset="0.267" stop-color="#d8d8d8"/>
      <stop offset="0.609" stop-color="#f6f6f6"/>
      <stop offset="0.771" stop-color="#fdfdfd"/>
      <stop offset="0.836" stop-color="#fff"/>
      <stop offset="0.996" stop-color="#e9e9e9"/>
      <stop offset="1" stop-color="#fff"/>
    </linearGradient>
    <linearGradient id="linear-gradient-17" x1="-186.608" y1="-406.862" x2="-186.609" y2="-406.937" xlink:href="#linear-gradient-4"/>
    <linearGradient id="linear-gradient-18" x1="-6.397" y1="0.5" x2="-5.397" y2="0.5" xlink:href="#linear-gradient-4"/>
  </defs>
  <g id="Group_1076" data-name="Group 1076" transform="translate(-2409.381 -4537.852)">
    <path id="Path_1869" data-name="Path 1869" d="M2523.381,4594.852a56.974,56.974,0,0,1-31.94,51.2,55.533,55.533,0,0,1-10.8,4v.011a.1.1,0,0,0-.05.009h-.01a57.446,57.446,0,0,1-28.62-.06,56.053,56.053,0,0,1-10.77-4.02,57,57,0,1,1,82.19-51.139Z" fill="url(#linear-gradient)"/>
    <g id="Group_1083" data-name="Group 1083">
      <g id="Group_1075" data-name="Group 1075">
        <path id="Union_2-2" data-name="Union 2-2" d="M2487.691,4637.932a5.481,5.481,0,0,0-.82.03,15.738,15.738,0,0,0-1.34-2.141,5.928,5.928,0,0,0,.69-.81c-.85-6.84-7.06-10.13-7.06-10.13h-21.78s-.18.34-.48,1c-.04.081-.08.161-.12.25a56.01,56.01,0,0,0-2.27,6.03c-.08.271-.17.54-.25.821-.28.91-.55,1.89-.8,2.939-.06.24-.12.49-.18.74s-.11.51-.17.76-.11.511-.17.77c-.01.05-.02.1-.03.141v.009c-.04.221-.09.431-.13.65-.19.96-.36,1.96-.5,3l-.01-.1s-2.57-3.591-6.52-3.93a5.436,5.436,0,0,0-.82-.03,21.03,21.03,0,0,0-3.74,8.059,56.053,56.053,0,0,0,10.77,4.02,57.446,57.446,0,0,0,28.62.06.029.029,0,0,1-.01.02c.01-.009.02-.009.02-.02a.1.1,0,0,1,.05-.009v-.011a55.533,55.533,0,0,0,10.8-4A20.879,20.879,0,0,0,2487.691,4637.932Zm-7.92.739c.03.11.05.21.07.32.03.16.06.321.09.48C2479.871,4639.2,2479.831,4638.932,2479.771,4638.671Zm.8,5.1c-.06-.5-.12-1-.19-1.491.02.1.03.2.05.3.06.449.11.889.17,1.35,0,.019.01.03.01.05.01.169.03.35.04.529C2480.631,4644.261,2480.6,4644.011,2480.571,4643.772Zm-32.64-8.931a9.014,9.014,0,0,0-.84.98,15.738,15.738,0,0,0-1.34,2.141c3.95.339,6.52,3.93,6.52,3.93l.01.1c.14-1.04.31-2.04.5-3,.04-.219.09-.429.13-.65v-.009C2450.021,4635.042,2447.931,4634.841,2447.931,4634.841Zm5.53-9.96s-6.21,3.29-7.06,10.13a5.947,5.947,0,0,0,.69.81,9.014,9.014,0,0,1,.84-.98s2.09.2,4.98,3.491c.01-.04.02-.091.03-.141.06-.259.11-.52.17-.77s.11-.51.17-.76.12-.5.18-.74c.25-1.049.52-2.029.8-2.939.08-.281.17-.55.25-.821a56.01,56.01,0,0,1,2.27-6.03c.04-.089.08-.169.12-.25.3-.66.48-1,.48-1Zm49.38-28.949a5.167,5.167,0,0,0-1.05-.991,2.514,2.514,0,0,0-.35-.22c-.13-.079-.26-.139-.39-.21a4.024,4.024,0,0,0-.51-.21,4.525,4.525,0,0,0-.62-.17,2.958,2.958,0,0,0-.31-.049,3.308,3.308,0,0,0-.33-.04,1.719,1.719,0,0,0-.32-.02h-.09a1.33,1.33,0,0,0-.4.049,1.351,1.351,0,0,0-.27.071c-.02-.1-.04-.191-.06-.29a23.83,23.83,0,0,0-1.24-4.06v-.011c-.36-.04-.73-.09-1.09-.159a11.788,11.788,0,0,1-1.16-.281c-.32-.089-.65-.19-.96-.3l-.09-.031c-.32-.119-.64-.25-.94-.389-.41-.16-.85-.321-1.31-.471-.06-.02-.11-.04-.17-.06a.526.526,0,0,0-.14-.049c-1.19-.4-2.5-.77-3.9-1.11-.14-.04-.28-.071-.42-.1-.28-.06-.56-.131-.84-.2-.58-.129-1.16-.25-1.75-.379-.29-.061-.59-.121-.88-.181l-.9-.179c-.3-.06-.6-.111-.91-.16a73.328,73.328,0,0,0-30.29,0c-.31.049-.61.1-.91.16l-.9.179c-.3.06-.6.12-.89.181s-.59.129-.87.189c-.58.13-1.16.26-1.71.391-.84.21-1.65.42-2.43.639-.26.071-.51.151-.76.22s-.49.15-.73.22c-.72.231-1.4.47-2.02.711-.33.15-.68.289-1.02.42s-.7.23-1.05.33-.71.179-1.08.25-.72.119-1.09.159v.011c-.06.159-.13.33-.19.5s-.13.339-.19.509c-.13.37-.26.741-.37,1.131-.11.36-.21.729-.3,1.1a3.767,3.767,0,0,0-.11.451c-.03.149-.07.3-.09.45a.064.064,0,0,0-.01.059.81.81,0,0,0-.04.151,2.252,2.252,0,0,0-.26-.071,1.4,1.4,0,0,0-.41-.049h-.09a1.718,1.718,0,0,0-.32.02,3.308,3.308,0,0,0-.33.04,2.972,2.972,0,0,0-.31.049,4.531,4.531,0,0,0-.62.17c-.13.051-.27.1-.4.161s-.23.109-.34.16a5.673,5.673,0,0,0-.52.329l-.23.171a4.624,4.624,0,0,0-.35.31,3.875,3.875,0,0,0-.27.289c-.03.02-.04.04-.04.051a2.684,2.684,0,0,0-.22.25,4.186,4.186,0,0,0-.3.44v11.12a5.176,5.176,0,0,0,.77.96,3.467,3.467,0,0,0,.39.35,5.453,5.453,0,0,0,.59.409,2.486,2.486,0,0,0,.37.19.784.784,0,0,0,.18.091c.18.079.36.139.54.2a4.948,4.948,0,0,0,1.21.21.681.681,0,0,0,.2.02h.09a2.051,2.051,0,0,0,2.05-2.04v8.6a8.324,8.324,0,0,0,8.32,8.31h13.29l31.12-.009h.02c.22,0,.43-.011.64-.02a10.148,10.148,0,0,0,1.24-.191c.2-.05.4-.1.59-.159a6.973,6.973,0,0,0,.76-.281c.25-.11.49-.219.72-.349a3.919,3.919,0,0,0,.35-.2c.14-.089.28-.18.42-.27s.27-.2.4-.3.26-.21.39-.321a6.726,6.726,0,0,0,.75-.77,5.907,5.907,0,0,0,.39-.469,8.273,8.273,0,0,0,1.65-4.98v-8.591a2.053,2.053,0,0,0,.09.611c.05.119.1.239.16.35a1.206,1.206,0,0,0,.16.269,1.751,1.751,0,0,0,.19.2,2.054,2.054,0,0,0,1.45.6h.19a.048.048,0,0,0,.05,0,.084.084,0,0,0,.05-.011c.01.011.01.011.02,0a.886.886,0,0,0,.23-.009,4.528,4.528,0,0,0,.51-.09,4.265,4.265,0,0,0,.62-.171,4.183,4.183,0,0,0,.49-.2.857.857,0,0,0,.19-.09l.27-.151a1.862,1.862,0,0,0,.33-.219,1.793,1.793,0,0,0,.27-.21,4.9,4.9,0,0,0,1.12-1.27c.01,0,.01-.011.01-.011v-11.12A3.8,3.8,0,0,0,2502.841,4595.932Zm-29.1-2.97c-.03-.011-.06-.011-.09-.021a.548.548,0,0,1,.13.021Zm-8.9-.82c.19-.02.38-.031.55-.04-.11.009-.23.02-.36.029C2464.971,4592.131,2464.9,4592.142,2464.841,4592.142Zm2.59-.02c.12,0,.24.009.37.02a.143.143,0,0,0,.06.009c-.05,0-.11-.009-.16-.009s-.12-.011-.18-.011C2467.491,4592.131,2467.461,4592.122,2467.431,4592.122Zm18.35,3.679c.26.08.53.161.8.25-.47-.15-.93-.29-1.4-.42C2485.381,4595.682,2485.581,4595.741,2485.781,4595.8Zm-37.97-.29c-.33.091-.66.19-1,.29q-.69.21-1.38.42c-.21.071-.42.14-.63.2-.67.221-1.35.451-2.02.681-.03.009-.06.029-.1.04,1.84-.631,3.69-1.221,5.55-1.75Zm-7.04,2.321c.54-.2,1.08-.391,1.62-.591-.04.011-.08.031-.12.04C2441.771,4597.462,2441.271,4597.642,2440.771,4597.832Zm12.37-3.7a.627.627,0,0,1,.14-.04l-.75.181C2452.731,4594.221,2452.941,4594.171,2453.141,4594.131Zm5.47-1.129c-.23.04-.47.08-.72.129.38-.069.77-.14,1.15-.2C2458.9,4592.951,2458.761,4592.971,2458.611,4593Zm.43-.07c.18-.031.37-.06.55-.1l-.18.029C2459.291,4592.881,2459.171,4592.9,2459.041,4592.932Zm8.2-.83h-.01a.143.143,0,0,0,.06.009A.084.084,0,0,1,2467.241,4592.1Zm-.02.009.01-.009c-.02.009-.03.009-.04,0A.04.04,0,0,1,2467.221,4592.111Zm31.07-6.48q0-.823-.03-1.62c-.02-.529-.05-1.06-.09-1.57v-.009c-.04-.511-.09-1-.15-1.491-.11-.919-.26-1.8-.43-2.64-.03-.13-.05-.25-.08-.369-.08-.381-.17-.75-.26-1.111-.11-.41-.22-.81-.35-1.2-.13-.431-.27-.841-.41-1.241-.19-.52-.39-1.02-.61-1.5a21.491,21.491,0,0,0-3.11-5.02c-.3-.35-.6-.7-.92-1.029-.24-.25-.49-.491-.73-.721s-.49-.46-.74-.67a22.375,22.375,0,0,0-4.52-3c-.25-.129-.5-.25-.75-.37-.11-.049-.22-.1-.33-.15-.24-.109-.48-.209-.72-.31-.66-.27-1.31-.52-1.97-.73-.13-.049-.27-.089-.4-.129-.64-.2-1.28-.38-1.91-.531-.38-.09-.75-.179-1.13-.259h-.02c-.37-.081-.74-.15-1.1-.21l-.17-.031c-.42-.079-.84-.139-1.25-.19a1.479,1.479,0,0,0-.21-.029c-.34-.051-.67-.091-1-.121-.53-.06-1.06-.1-1.56-.129-1.12-.07-2.15-.091-3.06-.091a1.691,1.691,0,0,0-.85-.55c-.08-.029-.17-.06-.26-.089a9.1,9.1,0,0,0-2.05-.34,3.473,3.473,0,0,0-.35-.021c-.15-.01-.31-.01-.47-.01s-.32,0-.47.01a3.473,3.473,0,0,0-.35.021c-1.59.1-2.84.479-3.17.979-.78,0-1.65.01-2.58.06l-.48.031c-.07,0-.13.009-.2.009-.5.04-1.01.08-1.54.14-.62.07-1.26.15-1.91.25-.37.061-.73.13-1.1.2-.61.11-1.22.25-1.85.409-.27.06-.54.131-.81.21-.45.131-.91.27-1.37.421l-.54.179c-.57.2-1.15.431-1.72.67-.32.14-.64.281-.95.43-.25.121-.5.25-.75.38-.19.1-.38.2-.56.3-.56.309-1.11.639-1.65,1-.18.119-.36.239-.53.369s-.36.261-.53.39a19.217,19.217,0,0,0-2.02,1.741c-.28.279-.56.559-.83.86a1.727,1.727,0,0,0-.12.129c-.21.23-.41.471-.61.721-.3.359-.59.75-.87,1.15-.23.319-.44.64-.65.979-.3.48-.59.991-.87,1.521-.19.37-.38.759-.56,1.169a24.165,24.165,0,0,0-1.05,2.831,9.46,9.46,0,0,0-.26.91c-.1.369-.2.759-.29,1.15-.05.21-.09.429-.14.649-.01.05-.02.1-.03.161-.14.73-.26,1.48-.36,2.259a1.006,1.006,0,0,1-.02.161c-.05.439-.09.879-.13,1.339,0,.051-.01.1-.01.15-.04.48-.07.971-.09,1.48.01.011,0,.02,0,.04-.02.52-.03,1.051-.03,1.6,0,.971.03,1.98.1,3.02a1.029,1.029,0,0,0-.07.371.7.7,0,0,0,.03.2.544.544,0,0,0,.08.2.682.682,0,0,0,.12.121.379.379,0,0,0,.13.089c.04.02.08.04.13.06a.992.992,0,0,0,.32.081,2.98,2.98,0,0,0,.55.029c.37-.04.73-.09,1.09-.159s.72-.151,1.08-.25.7-.211,1.05-.33.69-.27,1.02-.42c.62-.241,1.3-.48,2.02-.711.24-.07.48-.15.73-.22s.5-.149.76-.22c.77-.23,1.59-.44,2.43-.639.55-.131,1.13-.261,1.71-.391.29-.069.58-.129.87-.189s.59-.121.89-.181l.9-.179c.3-.06.6-.111.91-.16a73.328,73.328,0,0,1,30.29,0c.31.049.61.1.91.16l.9.179c.29.06.59.12.88.181.59.129,1.17.25,1.75.379.28.07.56.141.84.2.14.029.28.06.42.1s.28.07.41.11c1.09.279,2.13.569,3.09.879.14.041.27.081.4.121a.526.526,0,0,1,.14.049c.06.02.11.04.17.06.46.161.89.32,1.31.48.31.141.62.261.94.38l.09.031c.31.109.64.21.96.3a11.788,11.788,0,0,0,1.16.281c.36.069.73.13,1.09.17,1.81.06,1.29-1.161,1.29-1.161.07-1.029.1-2.02.1-2.98Z" fill="url(#linear-gradient-2)"/>
      </g>
      <g id="Group_1082" data-name="Group 1082">
        <g id="Group_1079" data-name="Group 1079">
          <g id="Group_1075-2" data-name="Group 1075">
            <path id="Path_1869-2" data-name="Path 1869" d="M2496.823,4598.818v17.741a8.312,8.312,0,0,1-8.306,8.319h-44.424a8.313,8.313,0,0,1-8.32-8.306v-17.754a9.154,9.154,0,0,0,5,2.02v12.02a7.016,7.016,0,0,0,7.012,7.02H2484.8a7.015,7.015,0,0,0,7.02-7.012v-12.028A9.151,9.151,0,0,0,2496.823,4598.818Z" fill="url(#linear-gradient-3)"/>
            <path id="Path_1870" data-name="Path 1870" d="M2491.823,4600.838v12.02a7.016,7.016,0,0,1-7.012,7.02h-37.018a7.015,7.015,0,0,1-7.02-7.012v-12.028a6.757,6.757,0,0,0,2.57-.36c4.46-1.52,9.28-5.608,22.95-5.608s18.49,4.088,22.96,5.608A6.76,6.76,0,0,0,2491.823,4600.838Z" fill="#272727"/>
            <rect id="Rectangle_307" data-name="Rectangle 307" width="4.213" height="7.979" rx="1.564" transform="translate(2451.703 4600.048)" fill="#00fff4"/>
            <rect id="Rectangle_308" data-name="Rectangle 308" width="4.213" height="7.979" rx="1.564" transform="translate(2476.788 4600.048)" fill="#00fff4"/>
            <path id="Path_1871" data-name="Path 1871" d="M2466.415,4610.6h-3.479l3.363,4.692v.073l.027-.037.027.037v-.073l3.363-4.692h-3.3Z" fill="#00fff4"/>
          </g>
          <g id="Group_1076-2" data-name="Group 1076">
            <path id="Path_1872" data-name="Path 1872" d="M2435.773,4596.067v11.9a2.044,2.044,0,0,1-2.048,2.04h-.092a2.038,2.038,0,0,1-1.95-2.04v-11.9a2.039,2.039,0,0,1,1.95-2.04h.09a2.062,2.062,0,0,1,1.45.6A2.014,2.014,0,0,1,2435.773,4596.067Z" fill="url(#linear-gradient-4)"/>
            <path id="Path_1873" data-name="Path 1873" d="M2433.633,4610.009a5.073,5.073,0,0,1-4.25-2.43v-11.121a5.075,5.075,0,0,1,4.25-2.43,2.039,2.039,0,0,0-1.95,2.04v11.9A2.039,2.039,0,0,0,2433.633,4610.009Z" fill="url(#linear-gradient-4)"/>
            <path id="Path_1874" data-name="Path 1874" d="M2431.683,4596.429v11.179a3.911,3.911,0,0,1-1.32-1.309v-8.56A3.908,3.908,0,0,1,2431.683,4596.429Z" fill="url(#linear-gradient-6)"/>
          </g>
          <g id="Group_1077" data-name="Group 1077">
            <path id="Path_1875" data-name="Path 1875" d="M2496.823,4596.067v11.9a2.045,2.045,0,0,0,2.05,2.04h.091a2.037,2.037,0,0,0,1.949-2.04v-11.9a2.039,2.039,0,0,0-1.949-2.04h-.091a2.066,2.066,0,0,0-1.45.6A2.018,2.018,0,0,0,2496.823,4596.067Z" fill="url(#linear-gradient-4)"/>
            <path id="Path_1876" data-name="Path 1876" d="M2498.964,4610.009a5.075,5.075,0,0,0,4.25-2.43v-11.121a5.075,5.075,0,0,0-4.25-2.43,2.039,2.039,0,0,1,1.949,2.04v11.9A2.038,2.038,0,0,1,2498.964,4610.009Z" fill="url(#linear-gradient-4)"/>
            <path id="Path_1877" data-name="Path 1877" d="M2500.913,4596.429v11.179a3.9,3.9,0,0,0,1.32-1.309v-8.56A3.91,3.91,0,0,0,2500.913,4596.429Z" fill="url(#linear-gradient-9)"/>
          </g>
          <g id="Group_1078" data-name="Group 1078">
            <path id="Path_1878" data-name="Path 1878" d="M2498.193,4588.628s.52,1.222-1.29,1.161a14.146,14.146,0,0,1-4.24-1.161c-6.64-2.6-19.37-4.469-26.37-4.469s-19.72,1.869-26.36,4.469a14.215,14.215,0,0,1-4.24,1.161c-1.81.061-1.29-1.161-1.29-1.161-2.13-34.159,31.89-29.219,31.89-29.219S2500.323,4554.467,2498.193,4588.628Z" fill="url(#linear-gradient-10)"/>
            <ellipse id="Ellipse_80" data-name="Ellipse 80" cx="4.064" cy="1.255" rx="4.064" ry="1.255" transform="translate(2462.234 4558.154)" fill="url(#linear-gradient-11)"/>
            <path id="Path_1879" data-name="Path 1879" d="M2497.413,4598.308l-.03.03c-.87.66-2.41.711-4.94-.27-.21-.079-.41-.159-.62-.239-10.68-4.041-22.24-5.761-25.53-5.761s-14.84,1.72-25.52,5.761c-.21.08-.41.16-.62.239-2.53.981-4.07.93-4.94.27l-.03-.03c-1.87-1.47-.56-5.8.51-8.52a14.213,14.213,0,0,0,4.24-1.16c6.64-2.6,19.36-4.469,26.36-4.469s19.73,1.869,26.37,4.469a14.144,14.144,0,0,0,4.24,1.16C2497.973,4592.509,2499.283,4596.838,2497.413,4598.308Z" fill="url(#linear-gradient-12)"/>
            <path id="Path_1880" data-name="Path 1880" d="M2497.383,4598.338a5.7,5.7,0,0,1-.56.48,9.154,9.154,0,0,1-5,2.02,6.757,6.757,0,0,1-2.57-.36c-4.47-1.52-9.28-5.608-22.96-5.608s-18.49,4.088-22.95,5.608a6.757,6.757,0,0,1-2.57.36,9.151,9.151,0,0,1-5-2.02,5.7,5.7,0,0,1-.56-.48,2.047,2.047,0,0,0,.56.3c.92.339,2.32.23,4.38-.571.21-.079.41-.159.62-.238,2-.75,4.03-1.432,6.04-2.03.67-.2,1.33-.39,1.99-.571q.5-.133.99-.27c2.28-.609,4.48-1.109,6.51-1.52.29-.06.58-.12.86-.17.49-.1.98-.189,1.45-.27.27-.049.54-.1.8-.14.84-.139,1.62-.259,2.35-.369.41-.051.8-.111,1.17-.16a1,1,0,0,0,.17-.021c.37-.04.71-.069,1.03-.109.077,0,.154-.009.23-.02.24-.02.46-.04.67-.051q.75-.06,1.26-.06t1.23.06c.23.011.47.031.74.06.06,0,.13.011.19.011.32.04.67.069,1.04.109a.559.559,0,0,0,.14.021c.38.049.78.1,1.2.16,1.19.17,2.53.389,3.98.659.48.091.97.182,1.47.29.87.17,1.77.361,2.7.581.28.061.55.121.83.189.97.23,1.97.48,2.99.75.98.262,1.98.541,2.98.841,2,.6,4.04,1.269,6.04,2.03.21.08.41.16.62.239,2.06.8,3.47.91,4.38.571A2.393,2.393,0,0,0,2497.383,4598.338Z" fill="url(#linear-gradient-12)"/>
          </g>
        </g>
        <g id="Group_1080" data-name="Group 1080">
          <path id="Path_1881" data-name="Path 1881" d="M2457.383,4624.878s-.18.341-.48,1c-.04.08-.08.161-.12.25a54.493,54.493,0,0,0-2.27,6.031c-.08.27-.17.54-.25.819-.28.911-.55,1.891-.8,2.94-.06.241-.12.491-.18.741s-.12.5-.17.759-.11.511-.17.77c-.01.051-.02.1-.03.141-2.89-3.291-4.98-3.491-4.98-3.491a9.614,9.614,0,0,0-.84.98,5.474,5.474,0,0,1-.69-.809c.85-6.841,7.06-10.131,7.06-10.131Z" fill="url(#linear-gradient-14)"/>
          <path id="Path_1882" data-name="Path 1882" d="M2452.913,4638.329v.009c-.04.22-.09.43-.13.651-.19.96-.36,1.96-.5,3l-.01-.1s-2.57-3.59-6.52-3.932a16.21,16.21,0,0,1,1.34-2.14,9.848,9.848,0,0,1,.84-.98S2450.023,4635.038,2452.913,4638.329Z" fill="#272727"/>
          <path id="Path_1870-2" data-name="Path 1870" d="M2451.7,4648.582a2.275,2.275,0,0,0,.26,1.429,56.053,56.053,0,0,1-10.77-4.02,21.03,21.03,0,0,1,3.74-8.059,5.436,5.436,0,0,1,.82.03c3.95.339,6.52,3.93,6.52,3.93l.01.1c-.03.2-.06.39-.09.591C2451.941,4644.471,2451.771,4646.482,2451.7,4648.582Z" fill="url(#linear-gradient-15)"/>
        </g>
        <path id="Path_1871-2" data-name="Path 1871" d="M2480.951,4648.881c0,.081-.01.17-.02.27a1.11,1.11,0,0,1-.05.25,2.549,2.549,0,0,1-.17.451c-.03.049-.06.11-.09.159a.086.086,0,0,1-.03.06c0,.011-.01.011-.02.02a.029.029,0,0,0,.01-.02,57.446,57.446,0,0,1-28.62-.06,2.275,2.275,0,0,1-.26-1.429c.07-2.1.24-4.111.49-6,.03-.2.06-.391.09-.591.14-1.04.31-2.04.5-3,.04-.219.09-.429.13-.65v-.009c.01-.04.02-.091.03-.141.06-.259.11-.52.17-.77s.11-.51.17-.76.12-.5.18-.74c.25-1.049.52-2.029.8-2.939.08-.281.17-.55.25-.821a56.01,56.01,0,0,1,2.27-6.03c.04-.089.08-.169.12-.25.3-.66.48-1,.48-1h17.86s.03.051.07.141q1.08,2.31,1.97,4.7a.08.08,0,0,1,.02.051c.17.48.34.969.51,1.449.1.31.2.631.3.94.08.271.17.54.25.821.21.679.41,1.4.61,2.169.29,1.04.54,2.1.76,3.161.24,1.179.45,2.379.62,3.58v.029c.1.661.18,1.34.25,2.011,0,.019.01.03.01.05.05.439.09.89.12,1.339.03.321.06.65.07.98.01.1.01.2.02.3.04.65.08,1.309.1,1.98a.379.379,0,0,1,.01.15A.383.383,0,0,1,2480.951,4648.881Z" fill="url(#linear-gradient-16)"/>
        <g id="Group_1081" data-name="Group 1081">
          <path id="Path_1885" data-name="Path 1885" d="M2475.24,4624.878s.18.341.48,1c.039.08.08.161.12.25a54.542,54.542,0,0,1,2.27,6.031c.08.27.17.54.25.819.28.911.55,1.891.8,2.94.06.241.12.491.18.741s.12.5.169.759.111.511.171.77c.01.051.02.1.03.141,2.89-3.291,4.98-3.491,4.98-3.491a9.492,9.492,0,0,1,.84.98,5.489,5.489,0,0,0,.69-.809c-.85-6.841-7.06-10.131-7.06-10.131Z" fill="url(#linear-gradient-17)"/>
          <path id="Path_1886" data-name="Path 1886" d="M2479.71,4638.329v.009c.04.22.09.43.13.651.19.96.36,1.96.5,3l.01-.1s2.57-3.59,6.52-3.932a16.21,16.21,0,0,0-1.34-2.14,9.72,9.72,0,0,0-.84-.98S2482.6,4635.038,2479.71,4638.329Z" fill="#272727"/>
          <path id="Path_1872-2" data-name="Path 1872" d="M2480.881,4649.4a1.11,1.11,0,0,0,.05-.25,2.166,2.166,0,0,0-.01-.569c-.05-1.4-.14-2.761-.27-4.071-.02-.25-.05-.5-.08-.739-.04-.4-.09-.8-.14-1.19-.02-.1-.03-.2-.05-.3s-.03-.19-.04-.29v-.02l.01-.07v-.009s2.57-3.591,6.52-3.93a5.481,5.481,0,0,1,.82-.03,20.879,20.879,0,0,1,3.75,8.119,55.533,55.533,0,0,1-10.8,4A2.11,2.11,0,0,0,2480.881,4649.4Z" fill="url(#linear-gradient-18)"/>
        </g>
      </g>
    </g>
  </g>
</svg>
