<svg id="Layer_1" data-name="Layer 1" xmlns="http://www.w3.org/2000/svg" xmlns:xlink="http://www.w3.org/1999/xlink" viewBox="0 0 291.92 291.92"><defs><style>.cls-1{fill:url(#linear-gradient);}.cls-2{fill:#d8d8d8;}.cls-3,.cls-6{fill:#333;}.cls-4{fill:#a8a8a8;opacity:0.5;}.cls-5{fill:#9cfaff;}.cls-6{opacity:0.2;}</style><linearGradient id="linear-gradient" y1="145.34" x2="290.68" y2="145.34" gradientUnits="userSpaceOnUse"><stop offset="0" stop-color="#50ba84"/><stop offset="1" stop-color="#15abd0"/></linearGradient></defs><g id="Group_940" data-name="Group 940"><path class="cls-1" d="M245.27,0H45.41A45.46,45.46,0,0,0,0,45.44V249.15c0,21.38,17.7,39,40.44,41.27,1.64.16,3.29.26,5,.26H245.24c1.68,0,3.32-.1,4.94-.26,22.77-2.23,40.5-19.83,40.5-41.27V45.44A45.48,45.48,0,0,0,245.27,0Z"/><path class="cls-2" d="M204,78.53V212.15a7.51,7.51,0,0,1-7.52,7.52H91.19a7.41,7.41,0,0,1-5.51-2.43,7.55,7.55,0,0,1-2-5.09V78.53A7.5,7.5,0,0,1,91.19,71H196.43A7.51,7.51,0,0,1,204,78.53Z"/><circle class="cls-3" cx="184.97" cy="88.34" r="8.77"/><rect class="cls-3" x="91.94" y="79.57" width="28.63" height="17.53"/><path class="cls-4" d="M204,190.41v21.74a7.51,7.51,0,0,1-7.52,7.52H91.19a7.41,7.41,0,0,1-5.51-2.43,7.55,7.55,0,0,1-2-5.09V107.25A212.73,212.73,0,0,0,106,134.87c3,3.11,6.18,6.27,9.59,9.42,2.39,2.23,4.92,4.46,7.56,6.64,3.12,2.65,6.44,5.22,9.84,7.74a181.7,181.7,0,0,0,30.32,18.16c1.13.55,2.27,1.09,3.4,1.56,4,1.85,8.2,3.57,12.53,5.08A172.77,172.77,0,0,0,204,190.41Z"/><circle class="cls-3" cx="143.82" cy="157.4" r="44.01"/><circle class="cls-5" cx="143.82" cy="157.4" r="31.12"/><path class="cls-6" d="M170.32,173.64a31.09,31.09,0,1,1-42.76-42.76,30.56,30.56,0,0,0-4.63,16.27,31.14,31.14,0,0,0,31.16,31.12A30.64,30.64,0,0,0,170.32,173.64Z"/></g></svg>