<svg xmlns="http://www.w3.org/2000/svg" xmlns:xlink="http://www.w3.org/1999/xlink" width="48.26" height="48.765" viewBox="0 0 48.26 48.765">
  <defs>
    <linearGradient id="linear-gradient" x1="0.5" x2="0.5" y2="1" gradientUnits="objectBoundingBox">
      <stop offset="0" stop-color="#50ba84"/>
      <stop offset="1" stop-color="#15abd0"/>
    </linearGradient>
  </defs>
  <g id="Group_1253" data-name="Group 1253" transform="translate(-985.89 -980.255)">
    <path id="Path_2067" data-name="Path 2067" d="M1034.15,990.98v35.41a2.633,2.633,0,0,1-2.63,2.63h-43a2.633,2.633,0,0,1-2.63-2.63V990.98Z" fill="#f3f3f3"/>
    <path id="Rectangle_400" data-name="Rectangle 400" d="M2.628,0h43a2.628,2.628,0,0,1,2.628,2.628v8.1a0,0,0,0,1,0,0H0a0,0,0,0,1,0,0v-8.1A2.628,2.628,0,0,1,2.628,0Z" transform="translate(985.894 980.255)" fill="#333"/>
    <path id="Path_2068" data-name="Path 2068" d="M1034.15,1016.4v9.99a2.633,2.633,0,0,1-2.63,2.63h-9.99Z" fill="#c6c6c6"/>
    <path id="Path_2069" data-name="Path 2069" d="M1034.15,1016.4l-12.616,12.616V1016.4Z" fill="#333"/>
    <g id="Group_1231" data-name="Group 1231">
      <path id="Path_2070" data-name="Path 2070" d="M995.692,1009.691q2.707-2.236,4.267-3.673a17.676,17.676,0,0,0,2.638-3.01,5.441,5.441,0,0,0,1.077-3.066,2.7,2.7,0,0,0-.525-1.767,2.183,2.183,0,0,0-3.218.152,3.628,3.628,0,0,0-.594,2.223h-4.556a7.828,7.828,0,0,1,1.008-3.922,5.855,5.855,0,0,1,2.513-2.319,7.923,7.923,0,0,1,3.466-.746,6.7,6.7,0,0,1,4.957,1.684,5.967,5.967,0,0,1,1.671,4.391,8.614,8.614,0,0,1-2.016,5.483,29.7,29.7,0,0,1-5.137,4.929h7.457v3.839H994.836v-3.507Q995.775,1009.637,995.692,1009.691Z" fill="url(#linear-gradient)"/>
      <path id="Path_2071" data-name="Path 2071" d="M1010.882,1010.575v-3.811l8.727-12.483h5.275v12.207h2.264v4.087h-2.264v3.59h-4.723v-3.59Zm9.611-11.1-4.64,7.015h4.64Z" fill="url(#linear-gradient)"/>
    </g>
    <g id="Group_1232" data-name="Group 1232">
      <path id="Path_2072" data-name="Path 2072" d="M1000.555,1017.465v5.724h-1.4v-2.356h-2.168v2.356H995.6v-5.724h1.394v2.242h2.168v-2.242Z" fill="url(#linear-gradient)"/>
      <path id="Path_2073" data-name="Path 2073" d="M1002.426,1022.969a2.086,2.086,0,0,1-.84-.816,2.638,2.638,0,0,1,0-2.474,2.11,2.11,0,0,1,.848-.82,2.7,2.7,0,0,1,2.413,0,2.1,2.1,0,0,1,.848.82,2.6,2.6,0,0,1,0,2.47,2.13,2.13,0,0,1-.856.82,2.561,2.561,0,0,1-1.211.285A2.51,2.51,0,0,1,1002.426,1022.969Zm1.883-1.215a1.165,1.165,0,0,0,.281-.84,1.19,1.19,0,0,0-.273-.84.927.927,0,0,0-1.349,0,1.2,1.2,0,0,0-.269.844,1.211,1.211,0,0,0,.265.84.856.856,0,0,0,.664.294A.906.906,0,0,0,1004.309,1021.754Z" fill="url(#linear-gradient)"/>
      <path id="Path_2074" data-name="Path 2074" d="M1011.243,1018.64v4.549h-1.394v-.62a1.533,1.533,0,0,1-.575.485,1.759,1.759,0,0,1-.8.183,1.8,1.8,0,0,1-.921-.232,1.562,1.562,0,0,1-.62-.672,2.289,2.289,0,0,1-.22-1.036v-2.657h1.386v2.47a1,1,0,0,0,.236.709.936.936,0,0,0,1.28,0,1,1,0,0,0,.237-.709v-2.47Z" fill="url(#linear-gradient)"/>
      <path id="Path_2075" data-name="Path 2075" d="M1014.252,1018.806a1.584,1.584,0,0,1,.815-.216v1.476h-.383a1.172,1.172,0,0,0-.783.225.993.993,0,0,0-.261.786v2.112h-1.394v-4.549h1.394v.758A1.848,1.848,0,0,1,1014.252,1018.806Z" fill="url(#linear-gradient)"/>
      <path id="Path_2076" data-name="Path 2076" d="M1016.526,1023.05a1.8,1.8,0,0,1-.734-.558,1.478,1.478,0,0,1-.3-.795h1.378a.533.533,0,0,0,.22.383.78.78,0,0,0,.481.147.687.687,0,0,0,.4-.1.313.313,0,0,0,.143-.265.306.306,0,0,0-.2-.29,4.083,4.083,0,0,0-.66-.207,6.218,6.218,0,0,1-.816-.241,1.4,1.4,0,0,1-.562-.4,1.086,1.086,0,0,1-.237-.737,1.255,1.255,0,0,1,.216-.714,1.458,1.458,0,0,1,.636-.509,2.436,2.436,0,0,1,1-.188,2,2,0,0,1,1.349.424,1.651,1.651,0,0,1,.567,1.125h-1.288a.559.559,0,0,0-.208-.375.725.725,0,0,0-.461-.138.641.641,0,0,0-.375.093.3.3,0,0,0-.13.257.314.314,0,0,0,.207.294,3.355,3.355,0,0,0,.649.195,7.406,7.406,0,0,1,.823.257,1.43,1.43,0,0,1,.559.408,1.158,1.158,0,0,1,.249.754,1.2,1.2,0,0,1-.225.714,1.483,1.483,0,0,1-.644.493,2.475,2.475,0,0,1-.974.179A2.614,2.614,0,0,1,1016.526,1023.05Z" fill="url(#linear-gradient)"/>
    </g>
  </g>
</svg>
